<?xml version="1.0" encoding="UTF-8" standalone="no"?>
<svg width="89px" height="12px" viewBox="0 0 89 12" version="1.1" xmlns="http://www.w3.org/2000/svg" xmlns:xlink="http://www.w3.org/1999/xlink">
    <!-- Generator: Sketch 3.7.2 (28276) - http://www.bohemiancoding.com/sketch -->
    <title>logo_synoptic</title>
    <desc>Created with Sketch.</desc>
    <defs></defs>
    <g id="Platform" stroke="none" stroke-width="1" fill="none" fill-rule="evenodd" fill-opacity="0.33">
        <g id="Login" transform="translate(-41.000000, -29.000000)" fill="#000000">
            <g id="logo_synoptic" transform="translate(41.000000, 29.000000)">
                <path d="M0.772460938,7.72558594 L0.772460938,10.4257812 C1.02766924,10.5488281 1.29768877,10.6559245 1.58251953,10.7470703 C1.8673503,10.8382161 2.15559892,10.9145508 2.44726562,10.9760742 C2.73893233,11.0375977 3.02718095,11.0831706 3.31201172,11.112793 C3.59684248,11.1424153 3.86914062,11.1572266 4.12890625,11.1572266 C4.71679688,11.1572266 5.25341797,11.0808919 5.73876953,10.9282227 C6.22412109,10.7755534 6.64111328,10.5579427 6.98974609,10.2753906 C7.33837891,9.99283858 7.6095378,9.64762373 7.80322266,9.23974609 C7.99690752,8.83186845 8.09375,8.37272139 8.09375,7.86230469 C8.09375,7.43391924 8.02766924,7.06136064 7.89550781,6.74462891 C7.76334639,6.42789717 7.57877608,6.14990234 7.34179688,5.91064453 C7.10481767,5.67138672 6.82226562,5.46402998 6.49414062,5.28857422 C6.16601562,5.11311845 5.80371094,4.95475264 5.40722656,4.81347656 C5.09733076,4.70410156 4.81819658,4.61637373 4.56982422,4.55029297 C4.32145186,4.4842122 4.1095378,4.41699219 3.93408203,4.34863281 C3.75862627,4.28027344 3.62418623,4.19938155 3.53076172,4.10595703 C3.4373372,4.01253252 3.390625,3.88378906 3.390625,3.71972656 C3.390625,3.49641924 3.47265625,3.33805342 3.63671875,3.24462891 C3.80078125,3.15120439 4.01725264,3.10449219 4.28613281,3.10449219 C4.46386719,3.10449219 4.67692061,3.125 4.92529297,3.16601562 C5.17366533,3.20703125 5.44254561,3.26855469 5.73193359,3.35058594 C6.02132158,3.43261719 6.32210283,3.53743486 6.63427734,3.66503906 C6.94645186,3.79264326 7.2552083,3.94075517 7.56054688,4.109375 L7.56054688,1.45019531 C7.32356767,1.33170576 7.06722002,1.22688799 6.79150391,1.13574219 C6.5157878,1.04459639 6.234375,0.967122361 5.94726562,0.903320312 C5.66015625,0.839518264 5.37190752,0.791666701 5.08251953,0.759765625 C4.79313155,0.727864549 4.51855469,0.711914062 4.25878906,0.711914062 C3.68912764,0.711914062 3.171875,0.787109375 2.70703125,0.9375 C2.2421875,1.08789062 1.84342451,1.3020833 1.51074219,1.58007812 C1.17805986,1.85807295 0.920572951,2.19645186 0.73828125,2.59521484 C0.555989549,2.99397783 0.46484375,3.43945312 0.46484375,3.93164063 C0.46484375,4.34179688 0.527506545,4.69954424 0.652832031,5.00488281 C0.778157517,5.31022139 0.955891892,5.5779622 1.18603516,5.80810547 C1.41617842,6.03824873 1.69075517,6.23763017 2.00976562,6.40625 C2.32877608,6.57486983 2.68196611,6.72526045 3.06933594,6.85742188 C3.38834639,6.96679688 3.67773438,7.05566406 3.9375,7.12402344 C4.19726562,7.19238281 4.41829424,7.2630208 4.60058594,7.3359375 C4.78287764,7.4088542 4.92301436,7.49772139 5.02099609,7.60253906 C5.11897783,7.70735674 5.16796875,7.85091142 5.16796875,8.03320312 C5.16796875,8.29296875 5.07340498,8.47867842 4.88427734,8.59033203 C4.6951497,8.70198564 4.45247392,8.7578125 4.15625,8.7578125 C3.98307295,8.7578125 3.76774092,8.73844405 3.51025391,8.69970703 C3.25276689,8.66097002 2.97363281,8.59944658 2.67285156,8.51513672 C2.37207031,8.43082686 2.05875655,8.32373047 1.73291016,8.19384766 C1.40706377,8.06396484 1.08691406,7.90787764 0.772460938,7.72558594 L0.772460938,7.72558594 Z M14.140625,6.47460937 L14.140625,11 L17.0253906,11 L17.0253906,6.41992188 L20.9560547,0.862304688 L17.6542969,0.862304688 L16.7177734,2.31835938 C16.5263672,2.6145833 16.3440755,2.89941406 16.1708984,3.17285156 C15.9977214,3.44628906 15.819987,3.73111983 15.6376953,4.02734375 L15.6103516,4.02734375 C15.4371745,3.7447917 15.2571614,3.45882158 15.0703125,3.16943359 C14.8834636,2.88004561 14.6943359,2.58723955 14.5029297,2.29101562 L13.5800781,0.862304688 L10.1894531,0.862304688 L14.140625,6.47460937 Z M30.5439453,11 L33.2441406,11 L33.2441406,0.862304688 L30.4755859,0.862304688 L30.4755859,6.65917969 L26.2304688,0.862304688 L23.5302734,0.862304688 L23.5302734,11 L26.2988281,11 L26.2988281,5.203125 L30.5439453,11 Z M36.4951172,5.93457031 C36.4951172,6.42220049 36.55778,6.88932295 36.6831055,7.3359375 C36.808431,7.78255205 36.9873047,8.19954424 37.2197266,8.58691406 C37.4521484,8.97428389 37.7312825,9.32633467 38.0571289,9.64306641 C38.3829753,9.95979814 38.7464192,10.2298177 39.1474609,10.453125 C39.5485026,10.6764323 39.9814453,10.8496094 40.4462891,10.9726562 C40.9111328,11.0957031 41.398763,11.1572266 41.9091797,11.1572266 C42.6748047,11.1572266 43.3868815,11.0227864 44.0454102,10.7539062 C44.7039388,10.4850261 45.2770183,10.1147461 45.7646484,9.64306641 C46.2522786,9.17138672 46.6350911,8.61881514 46.9130859,7.98535156 C47.1910808,7.35188799 47.3300781,6.66829424 47.3300781,5.93457031 C47.3300781,5.44694014 47.2674153,4.97981767 47.1420898,4.53320312 C47.0167644,4.08658858 46.8378906,3.66959639 46.6054688,3.28222656 C46.3730469,2.89485674 46.0927734,2.54280595 45.7646484,2.22607422 C45.4365234,1.90934248 45.0719401,1.63932295 44.6708984,1.41601562 C44.2698567,1.1927083 43.8369141,1.01953125 43.3720703,0.896484375 C42.9072266,0.7734375 42.4195964,0.711914062 41.9091797,0.711914062 C41.4033203,0.711914062 40.9168294,0.7734375 40.449707,0.896484375 C39.9825847,1.01953125 39.5485026,1.1927083 39.1474609,1.41601562 C38.7464192,1.63932295 38.3829753,1.90934248 38.0571289,2.22607422 C37.7312825,2.54280595 37.4521484,2.89485674 37.2197266,3.28222656 C36.9873047,3.66959639 36.808431,4.08658858 36.6831055,4.53320312 C36.55778,4.97981767 36.4951172,5.44694014 36.4951172,5.93457031 L36.4951172,5.93457031 Z M39.3730469,5.93457031 C39.3730469,5.56542969 39.4379883,5.2213542 39.5678711,4.90234375 C39.6977539,4.5833333 39.8766276,4.30533858 40.1044922,4.06835938 C40.3323567,3.83138017 40.601237,3.64453125 40.9111328,3.5078125 C41.2210286,3.37109375 41.5537109,3.30273438 41.9091797,3.30273438 C42.2646484,3.30273438 42.5973308,3.37109375 42.9072266,3.5078125 C43.2171224,3.64453125 43.4860026,3.83138017 43.7138672,4.06835938 C43.9417317,4.30533858 44.1206055,4.5833333 44.2504883,4.90234375 C44.3803711,5.2213542 44.4453125,5.56542969 44.4453125,5.93457031 C44.4453125,6.30371094 44.3803711,6.64778642 44.2504883,6.96679688 C44.1206055,7.28580733 43.9417317,7.56380205 43.7138672,7.80078125 C43.4860026,8.03776045 43.2171224,8.22460938 42.9072266,8.36132812 C42.5973308,8.49804688 42.2646484,8.56640625 41.9091797,8.56640625 C41.5537109,8.56640625 41.2210286,8.49804688 40.9111328,8.36132812 C40.601237,8.22460938 40.3323567,8.03776045 40.1044922,7.80078125 C39.8766276,7.56380205 39.6977539,7.28580733 39.5678711,6.96679688 C39.4379883,6.64778642 39.3730469,6.30371094 39.3730469,5.93457031 L39.3730469,5.93457031 Z M50.5742188,0.862304688 L50.5742188,11 L53.4589844,11 L53.4589844,7.609375 L53.9169922,7.609375 C54.6142578,7.609375 55.2317708,7.55354814 55.7695312,7.44189453 C56.3072917,7.33024092 56.7721355,7.15820312 57.1640625,6.92578125 C57.6744792,6.62955733 58.055013,6.25813799 58.3056641,5.81152344 C58.5563151,5.36490889 58.6816406,4.84537764 58.6816406,4.25292969 C58.6816406,3.89746094 58.6383464,3.57389326 58.5517578,3.28222656 C58.4651692,2.99055986 58.3444011,2.72623701 58.1894531,2.48925781 C58.0345052,2.25227861 57.8487956,2.04378252 57.6323242,1.86376953 C57.4158528,1.68375655 57.1754558,1.52766924 56.9111328,1.39550781 C56.5328776,1.20410156 56.0965169,1.06738281 55.6020508,0.985351562 C55.1075847,0.903320312 54.5276692,0.862304688 53.8623047,0.862304688 L50.5742188,0.862304688 Z M53.9716797,5.42871094 L53.4589844,5.42871094 L53.4589844,3.15917969 L53.8896484,3.15917969 C54.2542317,3.15917969 54.5367839,3.17399092 54.7373047,3.20361328 C54.9378255,3.23323564 55.1041667,3.27994795 55.2363281,3.34375 C55.6100261,3.51236983 55.796875,3.83365889 55.796875,4.30761719 C55.796875,4.76334639 55.623698,5.0755208 55.2773438,5.24414062 C55.1588542,5.30794267 54.9913737,5.35465498 54.7749023,5.38427734 C54.558431,5.4138997 54.2906901,5.42871094 53.9716797,5.42871094 L53.9716797,5.42871094 Z M64.3046875,11 L67.1894531,11 L67.1894531,3.30273438 L70.4091797,3.30273438 L70.4091797,0.862304688 L61.0849609,0.862304688 L61.0849609,3.30273438 L64.3046875,3.30273438 L64.3046875,11 Z M73.2978516,0.862304688 L73.2978516,11 L76.1826172,11 L76.1826172,0.862304688 L73.2978516,0.862304688 Z M88.046875,10.5488281 L88.046875,7.71191406 C87.6184895,7.98079424 87.1650391,8.19498701 86.6865234,8.35449219 C86.2080078,8.51399736 85.7180989,8.59375 85.2167969,8.59375 C84.7565105,8.59375 84.3452148,8.52311201 83.9829102,8.38183594 C83.6206055,8.24055986 83.3152669,8.04915361 83.0668945,7.80761719 C82.8185222,7.56608076 82.6293945,7.28352861 82.4995117,6.95996094 C82.3696289,6.63639326 82.3046875,6.29003906 82.3046875,5.92089844 C82.3046875,5.53352861 82.3730469,5.17805986 82.5097656,4.85449219 C82.6464844,4.53092451 82.8401692,4.25179033 83.0908203,4.01708984 C83.3414714,3.78238936 83.6422526,3.60009766 83.9931641,3.47021484 C84.3440755,3.34033203 84.7337239,3.27539062 85.1621094,3.27539062 C85.4127605,3.27539062 85.6611328,3.2970378 85.9072266,3.34033203 C86.1533203,3.38362627 86.3937175,3.44287109 86.628418,3.51806641 C86.8631185,3.59326172 87.0887044,3.68212891 87.3051758,3.78466797 C87.5216472,3.88720703 87.7233073,3.99544267 87.9101562,4.109375 L87.9101562,1.28613281 C87.5,1.09928389 87.0568034,0.956868455 86.5805664,0.858886719 C86.1043294,0.760904983 85.6132812,0.711914062 85.1074219,0.711914062 C84.2779948,0.711914062 83.5157878,0.844075486 82.8208008,1.10839844 C82.1258138,1.37272139 81.52653,1.73844405 81.0229492,2.20556641 C80.5193685,2.67268877 80.1274414,3.22526045 79.847168,3.86328125 C79.5668945,4.50130205 79.4267578,5.19628906 79.4267578,5.94824219 C79.4267578,6.44042969 79.4882812,6.90983076 79.6113281,7.35644531 C79.734375,7.80305986 79.9121094,8.2189128 80.1445312,8.60400391 C80.3769531,8.98909502 80.6595052,9.33886719 80.9921875,9.65332031 C81.3248698,9.96777344 81.7019856,10.2366536 82.1235352,10.4599609 C82.5450847,10.6832683 83.0053711,10.855306 83.5043945,10.9760742 C84.003418,11.0968425 84.5377605,11.1572266 85.1074219,11.1572266 C85.5904948,11.1572266 86.0883789,11.109375 86.6010742,11.0136719 C87.1137695,10.9179688 87.5957031,10.7630208 88.046875,10.5488281 L88.046875,10.5488281 Z"></path>
            </g>
        </g>
    </g>
</svg>