<?xml version="1.0" encoding="UTF-8" standalone="no"?>
<svg width="14px" height="14px" viewBox="0 0 14 14" version="1.1" xmlns="http://www.w3.org/2000/svg" xmlns:xlink="http://www.w3.org/1999/xlink">
    <!-- Generator: Sketch 3.7.2 (28276) - http://www.bohemiancoding.com/sketch -->
    <title>icon_chartedit_settings</title>
    <desc>Created with Sketch.</desc>
    <defs></defs>
    <g id="Platform-Requirements" stroke="none" stroke-width="1" fill="none" fill-rule="evenodd">
        <g id="Chart-Edit---Type---Desktop-Copy" transform="translate(-640.000000, -401.000000)" fill="#FFFFFF">
            <path d="M652.603348,408.125446 C652.603348,408.93703 652.985264,409.486034 653.749107,409.772475 C653.558146,410.536318 653.271709,411.216606 652.889788,411.813358 C652.698827,411.717878 652.46013,411.670138 652.173689,411.670138 C651.672417,411.670138 651.254696,411.837226 650.920515,412.171408 C650.347632,412.74429 650.228284,413.400708 650.562465,414.140681 C649.965713,414.522602 649.285425,414.809039 648.521582,415 C648.235141,414.236157 647.686137,413.854241 646.874554,413.854241 C646.06297,413.854241 645.513966,414.236157 645.227525,415 C644.463682,414.809039 643.783394,414.522602 643.186642,414.140681 C643.520823,413.400708 643.401475,412.74429 642.828592,412.171408 C642.494411,411.837226 642.076691,411.670138 641.575419,411.670138 C641.288977,411.670138 641.05028,411.717878 640.859319,411.813358 C640.477398,411.216606 640.190961,410.536318 640,409.772475 C640.763843,409.486034 641.145759,408.93703 641.145759,408.125446 C641.145759,407.313863 640.763843,406.764859 640,406.478418 C640.190961,405.714575 640.477398,405.034287 640.859319,404.437535 C641.05028,404.533015 641.288977,404.580755 641.575419,404.580755 C642.076691,404.580755 642.494411,404.413667 642.828592,404.079485 C643.401475,403.506603 643.520823,402.850185 643.186642,402.110212 C643.783394,401.728291 644.463682,401.441854 645.227525,401.250893 C645.513966,402.014736 646.06297,402.396652 646.874554,402.396652 C647.686137,402.396652 648.235141,402.014736 648.521582,401.250893 C649.285425,401.441854 649.965713,401.728291 650.562465,402.110212 C650.228284,402.850185 650.347632,403.506603 650.920515,404.079485 C651.254696,404.413667 651.672417,404.580755 652.173689,404.580755 C652.46013,404.580755 652.698827,404.533015 652.889788,404.437535 C653.271709,405.034287 653.558146,405.714575 653.749107,406.478418 C652.985264,406.764859 652.603348,407.313863 652.603348,408.125446 L652.603348,408.125446 Z M646.910359,410.989844 C647.698072,410.989844 648.372392,410.709374 648.933339,410.148427 C649.494286,409.58748 649.774756,408.91316 649.774756,408.125446 C649.774756,407.337733 649.494286,406.663413 648.933339,406.102466 C648.372392,405.541519 647.698072,405.261049 646.910359,405.261049 C646.122645,405.261049 645.448325,405.541519 644.887378,406.102466 C644.326431,406.663413 644.045961,407.337733 644.045961,408.125446 C644.045961,408.91316 644.326431,409.58748 644.887378,410.148427 C645.448325,410.709374 646.122645,410.989844 646.910359,410.989844 L646.910359,410.989844 Z" id="icon_chartedit_settings"></path>
        </g>
    </g>
</svg>