<?xml version="1.0" encoding="UTF-8" standalone="no"?>
<svg width="14px" height="14px" viewBox="0 0 14 14" version="1.1" xmlns="http://www.w3.org/2000/svg" xmlns:xlink="http://www.w3.org/1999/xlink">
    <!-- Generator: Sketch 3.7.2 (28276) - http://www.bohemiancoding.com/sketch -->
    <title>icon_chartedit_desc</title>
    <desc>Created with Sketch.</desc>
    <defs></defs>
    <g id="Platform-Requirements" stroke="none" stroke-width="1" fill="none" fill-rule="evenodd">
        <g id="Chart-Edit---Type---Desktop-Copy" transform="translate(-460.000000, -401.000000)" fill="#FFFFFF">
            <path d="M473.570082,402.539872 C473.880394,402.826313 473.880394,403.124685 473.570082,403.434996 L472.424323,404.54495 L470.45505,402.575677 L471.565004,401.429918 C471.875315,401.119606 472.173687,401.119606 472.460128,401.429918 L473.570082,402.539872 Z M470.097001,402.897921 L472.066274,404.867194 L465.728795,411.061454 L463.437277,411.562723 L463.938546,409.271205 L470.097001,402.897921 Z M471.457589,408.125446 L472.603348,406.979688 L472.603348,414.176486 C472.603348,414.415187 472.525772,414.612112 472.370616,414.767268 C472.21546,414.922423 472.018535,415 471.779834,415 L460.823514,415 C460.584813,415 460.387888,414.922423 460.232732,414.767268 C460.077577,414.612112 460,414.415187 460,414.176486 L460,403.220166 C460,402.981465 460.077577,402.78454 460.232732,402.629384 C460.387888,402.474228 460.584813,402.396652 460.823514,402.396652 L468.020312,402.396652 L466.874554,403.542411 L461.539614,403.542411 C461.277042,403.542411 461.145759,403.661759 461.145759,403.90046 L461.145759,413.496191 C461.145759,413.734892 461.265108,413.854241 461.503809,413.854241 L471.135345,413.854241 C471.350175,413.854241 471.457589,413.734892 471.457589,413.496191 L471.457589,408.125446 Z" id="icon_chartedit_desc"></path>
        </g>
    </g>
</svg>