<?xml version="1.0" encoding="UTF-8" standalone="no"?>
<svg width="26px" height="26px" viewBox="0 0 26 26" version="1.1" xmlns="http://www.w3.org/2000/svg" xmlns:xlink="http://www.w3.org/1999/xlink">
    <!-- Generator: Sketch 3.7.2 (28276) - http://www.bohemiancoding.com/sketch -->
    <title>icon_charttype_scatter</title>
    <desc>Created with Sketch.</desc>
    <defs></defs>
    <g id="Platform-Requirements" stroke="none" stroke-width="1" fill="none" fill-rule="evenodd">
        <g id="Chart-Edit---Type---Desktop-Copy" transform="translate(-449.000000, -198.000000)" fill="#FFFFFF">
            <path d="M450.733333,224 C451.690627,224 452.466667,223.22396 452.466667,222.266667 C452.466667,221.309373 451.690627,220.533333 450.733333,220.533333 C449.77604,220.533333 449,221.309373 449,222.266667 C449,223.22396 449.77604,224 450.733333,224 Z M455.066667,216.2 C456.02396,216.2 456.8,215.42396 456.8,214.466667 C456.8,213.509373 456.02396,212.733333 455.066667,212.733333 C454.109373,212.733333 453.333333,213.509373 453.333333,214.466667 C453.333333,215.42396 454.109373,216.2 455.066667,216.2 Z M459.4,209.266667 C460.357294,209.266667 461.133333,208.490627 461.133333,207.533333 C461.133333,206.57604 460.357294,205.8 459.4,205.8 C458.442706,205.8 457.666667,206.57604 457.666667,207.533333 C457.666667,208.490627 458.442706,209.266667 459.4,209.266667 Z M463.733333,201.466667 C464.690627,201.466667 465.466667,200.690627 465.466667,199.733333 C465.466667,198.77604 464.690627,198 463.733333,198 C462.77604,198 462,198.77604 462,199.733333 C462,200.690627 462.77604,201.466667 463.733333,201.466667 Z M472.4,215.333333 C473.357294,215.333333 474.133333,214.557294 474.133333,213.6 C474.133333,212.642706 473.357294,211.866667 472.4,211.866667 C471.442706,211.866667 470.666667,212.642706 470.666667,213.6 C470.666667,214.557294 471.442706,215.333333 472.4,215.333333 Z M468.066667,208.4 C469.02396,208.4 469.8,207.62396 469.8,206.666667 C469.8,205.709373 469.02396,204.933333 468.066667,204.933333 C467.109373,204.933333 466.333333,205.709373 466.333333,206.666667 C466.333333,207.62396 467.109373,208.4 468.066667,208.4 Z" id="icon_charttype_scatter"></path>
        </g>
    </g>
</svg>