<?xml version="1.0" encoding="UTF-8" standalone="no"?>
<svg width="14px" height="14px" viewBox="0 0 14 14" version="1.1" xmlns="http://www.w3.org/2000/svg" xmlns:xlink="http://www.w3.org/1999/xlink">
    <!-- Generator: Sketch 3.7.2 (28276) - http://www.bohemiancoding.com/sketch -->
    <title>icon_chartedit_theme</title>
    <desc>Created with Sketch.</desc>
    <defs></defs>
    <g id="Platform-Requirements" stroke="none" stroke-width="1" fill="none" fill-rule="evenodd">
        <g id="Chart-Edit---Type---Desktop-Copy" transform="translate(-550.000000, -401.000000)" fill="#FFFFFF">
            <path d="M556.874554,401.250893 C558.760291,401.250893 560.377466,401.847636 561.726127,403.041141 C563.074787,404.234646 563.749107,405.678765 563.749107,407.373542 C563.749107,408.423826 563.373159,409.318942 562.621251,410.058915 C561.869343,410.798888 560.96826,411.168869 559.917976,411.168869 L558.557387,411.168869 C558.247076,411.168869 557.978541,411.28225 557.751775,411.509016 C557.525009,411.735782 557.411628,412.004316 557.411628,412.314628 C557.411628,412.648809 557.507107,412.911376 557.698068,413.102337 C557.912899,413.317168 558.020313,413.5678 558.020313,413.854241 C558.020313,414.188422 557.912899,414.462924 557.698068,414.677755 C557.483237,414.892586 557.208735,415 556.874554,415 C554.964946,415 553.341804,414.331647 552.005078,412.994922 C550.668353,411.658196 550,410.035054 550,408.125446 C550,406.215839 550.668353,404.592696 552.005078,403.255971 C553.341804,401.919246 554.964946,401.250893 556.874554,401.250893 L556.874554,401.250893 Z M552.685372,408.125446 C552.995684,408.125446 553.264218,408.018033 553.490984,407.803202 C553.71775,407.588371 553.831131,407.313869 553.831131,406.979688 C553.831131,406.645506 553.71775,406.371004 553.490984,406.156173 C553.264218,405.941342 552.995684,405.833929 552.685372,405.833929 C552.375061,405.833929 552.106527,405.941342 551.879761,406.156173 C551.652995,406.371004 551.539614,406.645506 551.539614,406.979688 C551.539614,407.313869 551.652995,407.588371 551.879761,407.803202 C552.106527,408.018033 552.375061,408.125446 552.685372,408.125446 L552.685372,408.125446 Z M554.97689,405.082024 C555.287202,405.082024 555.555736,404.968643 555.782502,404.741877 C556.009268,404.515111 556.122649,404.246577 556.122649,403.936265 C556.122649,403.625954 556.009268,403.35742 555.782502,403.130654 C555.555736,402.903888 555.287202,402.790506 554.97689,402.790506 C554.666579,402.790506 554.398045,402.903888 554.171279,403.130654 C553.944513,403.35742 553.831131,403.625954 553.831131,403.936265 C553.831131,404.246577 553.944513,404.515111 554.171279,404.741877 C554.398045,404.968643 554.666579,405.082024 554.97689,405.082024 L554.97689,405.082024 Z M558.772217,405.082024 C559.082528,405.082024 559.351063,404.968643 559.577829,404.741877 C559.804594,404.515111 559.917976,404.246577 559.917976,403.936265 C559.917976,403.625954 559.804594,403.35742 559.577829,403.130654 C559.351063,402.903888 559.082528,402.790506 558.772217,402.790506 C558.461906,402.790506 558.193371,402.903888 557.966605,403.130654 C557.739839,403.35742 557.626458,403.625954 557.626458,403.936265 C557.626458,404.246577 557.739839,404.515111 557.966605,404.741877 C558.193371,404.968643 558.461906,405.082024 558.772217,405.082024 L558.772217,405.082024 Z M561.063735,408.125446 C561.374046,408.125446 561.64258,408.018033 561.869346,407.803202 C562.096112,407.588371 562.209494,407.313869 562.209494,406.979688 C562.209494,406.645506 562.096112,406.371004 561.869346,406.156173 C561.64258,405.941342 561.374046,405.833929 561.063735,405.833929 C560.753423,405.833929 560.484889,405.941342 560.258123,406.156173 C560.031357,406.371004 559.917976,406.645506 559.917976,406.979688 C559.917976,407.313869 560.031357,407.588371 560.258123,407.803202 C560.484889,408.018033 560.753423,408.125446 561.063735,408.125446 L561.063735,408.125446 Z" id="icon_chartedit_theme"></path>
        </g>
    </g>
</svg>