<?xml version="1.0" encoding="UTF-8" standalone="no"?>
<svg width="26px" height="23px" viewBox="0 0 26 23" version="1.1" xmlns="http://www.w3.org/2000/svg" xmlns:xlink="http://www.w3.org/1999/xlink">
    <!-- Generator: Sketch 3.7.2 (28276) - http://www.bohemiancoding.com/sketch -->
    <title>icon_charttype_spline</title>
    <desc>Created with Sketch.</desc>
    <defs></defs>
    <g id="Platform-Requirements" stroke="none" stroke-width="1" fill="none" fill-rule="evenodd">
        <g id="Chart-Edit---Type---Desktop-Copy" transform="translate(-749.000000, -200.000000)" fill="#FFFFFF">
            <path d="M751.303688,222.850764 C751.313586,222.809298 751.334929,222.72407 751.367271,222.601465 C751.42225,222.393047 751.487379,222.159792 751.562171,221.908153 C751.775358,221.19088 752.021785,220.47456 752.295858,219.812895 C752.860934,218.448694 753.475357,217.529698 753.897435,217.343109 C753.801466,217.385534 753.697214,217.368987 753.719602,217.383298 C753.915038,217.508229 753.848419,217.439909 754.78401,218.450529 C755.828732,219.57903 756.618498,220.152956 757.749822,220.273518 C759.2028,220.428357 760.627267,219.608494 762.117629,217.803461 C763.592748,216.01689 764.340041,213.670018 764.664544,210.606686 C764.787729,209.443812 764.829604,208.609124 764.898259,206.528436 C764.970117,204.350662 765.044411,203.453743 765.248631,202.780494 C765.3904,202.313124 765.364294,202.331521 765.635253,202.40401 C766.762629,202.705615 768.533827,206.518937 770.167401,212.220814 C770.829291,214.531092 771.441496,217.011577 771.988225,219.492768 C772.179693,220.3617 772.349229,221.168352 772.494957,221.891747 C772.545861,222.144437 772.590121,222.368492 772.627504,222.561296 C772.649769,222.676129 772.664696,222.754495 772.672053,222.793779 L775,222.357813 C774.99173,222.313651 774.975861,222.23034 774.952621,222.110479 C774.914163,221.912128 774.868791,221.682444 774.816733,221.424025 C774.668281,220.687109 774.495823,219.866557 774.301157,218.983115 C773.744645,216.457525 773.121133,213.931228 772.44422,211.56851 C770.499953,204.782179 768.628535,200.753087 766.247345,200.116053 C764.622391,199.681333 763.466693,200.49574 762.982188,202.093004 C762.692011,203.04963 762.611114,204.026256 762.531129,206.450329 C762.46442,208.472022 762.424311,209.271508 762.309303,210.357192 C762.029287,213.000563 761.412501,214.937578 760.291296,216.295511 C759.256462,217.548837 758.518459,217.9736 758.000796,217.918435 C757.618704,217.877716 757.198632,217.572448 756.522006,216.841562 C756.444877,216.758247 756.13581,216.419568 756.188906,216.47758 C756.047688,216.323287 755.942687,216.210997 755.837335,216.102956 C755.537912,215.795891 755.277208,215.56801 754.995234,215.38776 C754.35398,214.977844 753.644784,214.865273 752.93982,215.176919 C751.770885,215.693674 750.897362,217.000206 750.107728,218.906533 C749.798982,219.651904 749.526789,220.443122 749.291907,221.233388 C749.209875,221.509387 749.138201,221.766082 749.077191,221.997363 C749.03994,222.138577 749.014093,222.241792 749,222.300828 L751.303688,222.850764 L751.303688,222.850764 Z" id="icon_charttype_spline"></path>
        </g>
    </g>
</svg>